<?xml version="1.0" encoding="utf-8"?>
<!-- Generator: Adobe Illustrator 16.0.3, SVG Export Plug-In . SVG Version: 6.00 Build 0)  -->
<!DOCTYPE svg PUBLIC "-//W3C//DTD SVG 1.1//EN" "http://www.w3.org/Graphics/SVG/1.1/DTD/svg11.dtd">
<svg version="1.1" id="Capa_1" xmlns="http://www.w3.org/2000/svg" xmlns:xlink="http://www.w3.org/1999/xlink" x="0px" y="0px"
	 width="1377px" height="567px" viewBox="0 0 1377 567" enable-background="new 0 0 1377 567" xml:space="preserve">
<g>
	<path display="none" fill-rule="evenodd" clip-rule="evenodd" fill="#FFFFFF" d="M739.771,585.857
		c-249.416,0-498.831-0.009-748.247,0.089c-3.686,0.001-4.624-0.751-4.622-4.563c0.11-211.928,0.108-423.856,0.017-635.786
		c-0.002-3.562,0.506-4.706,4.48-4.706c499.332,0.113,998.663,0.112,1497.995,0.017c3.537-0.001,4.377,0.64,4.375,4.314
		c-0.114,212.095-0.117,424.19,0.012,636.285c0.003,4.078-1.282,4.427-4.762,4.425C1239.27,585.85,989.52,585.857,739.771,585.857z
		 M13.543,268.428c0,54.307,0.052,108.614-0.097,162.921c-0.012,4.457,0.983,5.831,5.685,5.813
		c49.31-0.187,98.62-0.097,147.93-0.119c58.805-0.027,117.61-0.009,176.415-0.196c12.808-0.041,25.144-3.172,36.631-8.754
		c39.975-19.43,60.447-51.727,60.599-95.983c0.364-105.449,0.077-210.9,0.244-316.35c0.008-5.022-1.481-5.868-6.109-5.862
		C329.725,10.033,224.607,10,119.49,10.013c-3.331,0-6.678-0.032-9.988,0.274C71.031,13.842,42.566,32.61,24.504,66.78
		c-8.193,15.499-10.995,32.312-10.978,49.719C13.575,167.142,13.543,217.785,13.543,268.428z M841.869,482.107
		c1.797-0.26,3.105-0.448,4.412-0.638c1.725-0.249,2.049-1.404,1.952-2.906c-0.108-1.673-1.27-1.695-2.481-1.693
		c-4.998,0.006-9.996,0.001-14.994,0.023c-1.16,0.005-2.422-0.081-2.573,1.606c-0.135,1.496,0.199,2.87,1.916,2.886
		c3.036,0.026,3.684,2.195,4.609,4.387c5.622,13.303,10.094,27.083,16.592,40.022c0.269,0.533,0.35,1.245,0.284,1.849
		c-0.691,6.336-7.341,12.748-13.728,13.309c-1.062,0.093-2.954-0.597-2.903,0.931c0.196,5.954-4.155,3.968-6.924,3.969
		c-267.734,0.067-535.467,0.063-803.2,0.063c-1.499,0-3.002,0.076-4.497-0.002c-2.614-0.138-2.428,1.667-2.382,3.347
		c0.044,1.579-0.474,3.553,2.204,3.521c1.666-0.02,3.332,0.014,4.998,0.014c445.5,0,890.999,0,1336.499,0
		c1.666,0,3.332,0.004,4.997-0.025c2.742-0.049,1.965-2.153,2.028-3.657c0.062-1.439,0.369-3.19-1.999-3.18
		c-1.499,0.007-2.998-0.018-4.497-0.018c-169.938-0.001-339.873-0.001-509.81-0.001c-1.904,0-3.81,0-6.952,0
		c6.619-4.946,9.462-10.943,11.703-17.205c5.101-14.245,10.004-28.561,14.967-42.854c0.771-2.223,1.326-4.492,4.428-4.512
		c1.644-0.011,2.202-1.175,2.065-2.765c-0.177-2.056-1.718-1.682-2.969-1.693c-3.831-0.038-7.669-0.119-11.492,0.061
		c-1.522,0.072-4.005-1.199-4.146,1.962c-0.128,2.884,2.127,2.398,3.842,2.642c1.402,0.199,3.176-0.216,2.376,2.401
		c-3.598,11.775-7.087,23.585-10.947,36.491C850.583,507.072,846.32,494.861,841.869,482.107z M45.527,506.015
		c0.833,0,1.665,0,2.497,0c11.106,0,11.004,0.035,14.564,10.302c1.054,3.038,1.369,4.904-2.698,5.037
		c-1.318,0.043-3.242,0.213-2.899,2.499c0.345,2.3,2.227,1.58,3.557,1.602c4.992,0.084,9.988,0.079,14.98,0.003
		c1.344-0.021,3.227,0.639,3.501-1.681c0.265-2.234-1.597-2.476-2.947-2.494c-3.313-0.047-4.331-2.002-5.276-4.772
		c-6.23-18.24-12.626-36.424-18.975-54.624c-0.759-2.177-1.235-4.167-4.54-4.167c-3.254,0-4.233,1.506-5.152,4.081
		c-6.48,18.153-13.073,36.267-19.591,54.406c-0.915,2.548-1.56,5.114-5.109,5.111c-1.256-0.002-2.69,0.491-2.536,2.384
		c0.164,2.008,1.673,1.758,2.953,1.77c4.328,0.038,8.659,0.104,12.982-0.031c1.442-0.045,3.691,1.004,4.05-1.537
		c0.412-2.915-2.288-2.509-3.795-2.703c-2.684-0.346-3.149-1.071-2.304-3.783c3.541-11.365,3.426-11.401,15.24-11.401
		C44.528,506.015,45.027,506.015,45.527,506.015z M682.213,492.012c-0.015,0-0.029,0-0.044,0c0,9.145-0.014,18.289,0.012,27.434
		c0.005,1.776-0.406,3.84,1.996,4.555c9.575,2.851,19.163,4.831,28.209-1.479c10.661-7.436,14.549-24.033,8.853-36.365
		c-3.28-7.103-8.875-10.526-16.426-11.055c-4.307-0.302-8.183,1.251-11.665,3.627c-2.814,1.923-3.293,0.784-3.217-1.945
		c0.102-3.654,0.024-7.315,0.024-10.973c0-11.211-0.001-11.218-11.384-9.964c-1.526,0.168-3.578-0.448-3.604,2.224
		c-0.022,2.243,1.879,2.281,3.169,2.345c3.519,0.173,4.222,1.956,4.148,5.163C682.08,474.385,682.213,483.2,682.213,492.012z
		 M926.463,457.871c0,0.005,0,0.011,0,0.016c-6.497,0-12.997-0.042-19.494,0.032c-1.465,0.017-3.591-0.839-3.734,1.923
		c-0.119,2.276,1.644,2.263,3.067,2.32c3.464,0.14,4.26,1.93,4.229,5.179c-0.15,16.161-0.157,32.325,0.004,48.486
		c0.033,3.375-0.557,5.384-4.377,5.52c-1.272,0.045-3.284,0.019-3.221,2.269c0.067,2.379,1.967,1.839,3.338,1.849
		c7.164,0.051,14.33,0.042,21.494,0.008c1.422-0.007,3.242,0.412,3.461-1.818c0.243-2.487-1.605-2.416-3.311-2.598
		c-9.382-1-9.38-1.016-9.379-10.73c0-1.167-0.059-2.336,0.011-3.498c0.255-4.289-1.827-9.813,0.888-12.553
		c2.942-2.971,8.534-0.52,12.953-0.86c3.242-0.251,6.005,0.022,5.956,4.401c-0.021,1.936,1.464,2.318,3.176,2.174
		c1.988-0.167,1.815-1.623,1.825-2.928c0.03-4.166,0.008-8.331,0.01-12.497c0.001-1.416-0.102-2.678-2.038-2.699
		c-1.6-0.018-2.528,0.566-2.657,2.233c-0.283,3.66-2.451,4.519-5.806,4.301c-3.479-0.227-7-0.073-10.49,0.135
		c-2.744,0.164-3.931-0.74-3.864-3.637c0.142-6.162,0.186-12.334-0.02-18.492c-0.106-3.188,1.18-4,4.111-3.856
		c4.99,0.246,10.004,0.417,14.989,0.207c4.368-0.185,7.979,0.051,8.26,5.666c0.082,1.646,1.432,2.151,2.912,2
		c2.075-0.213,1.517-1.791,1.446-3.056c-0.111-1.995-0.466-3.997-0.362-5.978c0.153-2.938-1.184-3.634-3.883-3.569
		C939.463,457.977,932.962,457.871,926.463,457.871z M1000.784,481.814c-1.123-6.415-1.123-6.416-7.065-4.659
		c-1.434,0.425-2.879,0.816-4.292,1.303c-0.901,0.311-2.034,0.405-2.249,1.658c-0.264,1.531,0.894,2.203,1.957,2.48
		c3.934,1.026,4.314,3.761,4.238,7.253c-0.192,8.822-0.13,17.652-0.025,26.478c0.032,2.758-0.138,4.987-3.648,5.159
		c-1.156,0.058-2.37,0.433-2.301,2.041c0.081,1.89,1.429,1.96,2.83,1.959c4.83-0.003,9.66,0.029,14.489-0.021
		c1.23-0.014,2.806,0.393,3.02-1.655c0.204-1.957-1.227-2.235-2.529-2.299c-3.636-0.18-4.044-2.331-3.968-5.387
		c0.181-7.324,0.059-14.654,0.059-21.982c0-8.672,2.262-11.186,11.032-12.257c7.294-0.893,10.643,1.618,11.682,8.83
		c1.219,8.455,0.318,16.968,0.685,25.443c0.132,3.043-0.223,5.204-3.94,5.306c-1.213,0.032-2.857,0.192-2.789,2.124
		c0.083,2.354,1.937,1.864,3.328,1.88c4.829,0.052,9.66,0.045,14.489,0.004c1.424-0.012,3.231,0.392,3.446-1.836
		c0.188-1.954-1.46-2.15-2.696-2.158c-4.069-0.028-4.123-2.547-4.143-5.655c-0.057-8.982,0.563-17.981-0.567-26.947
		c-1.296-10.258-7.216-14.563-17.339-12.537C1009.71,477.293,1005.377,479.366,1000.784,481.814z M1110.566,481.848
		c-1.212-6.284-1.211-6.282-7.586-4.414c-1.117,0.328-2.271,0.549-3.358,0.953c-1.028,0.383-2.484,0.4-2.539,1.965
		c-0.051,1.465,1.222,2.032,2.269,2.31c3.756,0.997,4.038,3.671,3.984,6.931c-0.145,8.829-0.148,17.663,0.006,26.491
		c0.053,3.004-0.252,5.277-3.876,5.532c-1.251,0.088-2.298,0.549-2.1,2.149c0.196,1.584,1.36,1.686,2.576,1.688
		c4.998,0.006,9.997,0.02,14.996-0.012c1.11-0.008,2.436,0.222,2.701-1.452c0.298-1.87-0.96-2.35-2.364-2.436
		c-3.438-0.209-4.209-2.053-4.131-5.273c0.214-8.825,0.171-17.661,0.018-26.489c-0.048-2.753,0.945-4.494,3.398-5.403
		c2.484-0.922,4.976-2.026,7.561-2.434c7.453-1.177,10.888,1.564,11.898,9.065c1.117,8.299,0.254,16.647,0.65,24.959
		c0.158,3.324-0.428,5.47-4.263,5.566c-1.353,0.034-2.72,0.489-2.447,2.386c0.236,1.643,1.534,1.512,2.675,1.517
		c5.165,0.023,10.331,0.022,15.496,0.005c1.318-0.004,2.815,0.171,2.993-1.769c0.186-2.03-1.451-2.056-2.686-2.131
		c-3.431-0.214-4.169-1.989-4.151-5.231c0.051-9.152,0.592-18.327-0.519-27.463c-1.236-10.174-7.325-14.497-17.415-12.491
		C1119.436,477.344,1115.08,479.714,1110.566,481.848z M545.169,481.947c-0.67-6.508-0.672-6.513-6.315-4.934
		c-1.44,0.402-2.91,0.75-4.289,1.31c-0.982,0.399-2.456,0.24-2.64,1.841c-0.208,1.813,1.244,2.284,2.431,2.663
		c3.083,0.983,3.766,3.039,3.707,6.081c-0.18,9.152-0.124,18.311-0.028,27.465c0.028,2.702,0.024,4.998-3.569,5.134
		c-1.358,0.051-2.679,0.564-2.408,2.438c0.238,1.643,1.519,1.523,2.662,1.528c4.994,0.022,9.988,0.019,14.982,0.006
		c1.188-0.004,2.42-0.053,2.693-1.583c0.342-1.915-1.084-2.377-2.416-2.381c-4.005-0.012-4.218-2.413-4.145-5.574
		c0.174-7.487,0.056-14.981,0.056-22.472c0-8.196,0.249-8.526,8.223-10.92c9.209-2.764,14.359,0.636,14.77,10.181
		c0.337,7.811,0.043,15.647,0.274,23.465c0.091,3.069-0.34,5.188-3.958,5.336c-1.4,0.058-2.657,0.561-2.359,2.428
		c0.26,1.633,1.542,1.506,2.678,1.512c5.16,0.025,10.321,0.028,15.481,0.004c1.3-0.006,2.775,0.189,2.853-1.845
		c0.077-2.014-1.519-2.106-2.717-2.124c-3.874-0.059-4.332-2.218-4.268-5.514c0.163-8.483,0.343-16.999-0.185-25.458
		c-0.76-12.181-7.585-16.777-19.282-13.776C553.188,477.837,549.403,479.86,545.169,481.947z M468.326,466.004
		c0.463-5.256,0.525-5.453-1.929-6.225c-12.828-4.032-25.195-4.072-36.609,4.328c-18.519,13.625-19.012,43.762-0.677,57.033
		c10.067,7.287,21.204,6.611,32.479,3.167c7.299-2.23,7.353-2.211,7.131-9.83c-0.042-1.459,0.983-3.658-1.54-4.085
		c-2.635-0.445-2.821,1.902-3.261,3.549c-0.898,3.361-3.005,5.437-6.154,6.665c-12.175,4.746-25.272-0.573-30.379-12.626
		c-3.961-9.349-4.665-19.035-1.505-28.778c4.488-13.842,18.161-20.633,31.373-15.779c2.619,0.961,4.713,2.151,5.203,5.323
		c0.302,1.962,0.422,4.642,3.732,4.121c2.952-0.465,1.33-2.892,1.841-4.391C468.292,467.708,468.238,466.832,468.326,466.004z
		 M786.929,501.547c0-0.012,0-0.023,0-0.035c4.328,0,8.656,0.019,12.984-0.011c1.306-0.009,2.721,0.147,3.012-1.771
		c1.062-6.983,0.647-13.718-4.072-19.393c-4.291-5.16-10.081-6.054-16.347-4.801c-9.321,1.863-15.746,7.496-18.394,16.391
		c-3.07,10.317-2.521,20.446,5.396,28.969c2.113,2.274,4.728,3.609,7.653,4.462c7.732,2.254,15.14,0.963,22.338-2.142
		c1.319-0.569,2.769-1.371,1.826-3.411c-0.85-1.837-2.122-1.052-3.354-0.732c-1.928,0.5-3.829,1.146-5.783,1.5
		c-11.295,2.036-19.749-3.614-21.366-14.054c-0.532-3.438-0.078-5.392,4.128-5.043C778.917,501.806,782.934,501.547,786.929,501.547
		z M1075.086,521.771c2.813,4.758,7.506,6.051,12.097,3.498c0.962-0.534,1.638-1.116,1.424-2.31
		c-0.201-1.123-1.141-1.159-1.914-1.067c-3.696,0.443-3.377-2-3.421-4.431c-0.185-9.985,0.744-19.989-0.444-29.958
		c-0.612-5.137-3.45-8.728-8.267-10.31c-7.994-2.626-15.777-1.44-23.227,2.242c-1.324,0.655-2.709,1.351-1.775,3.409
		c1.063,2.347,2.34,0.905,3.641,0.444c4.779-1.69,9.654-2.535,14.721-1.587c5.065,0.946,7.591,4.711,7.671,11.243
		c0.069,5.588-4.521,3.231-6.975,3.825c-5.679,1.376-11.414,2.355-16.245,5.961c-4.421,3.3-6.452,7.628-5.136,13.085
		c1.331,5.514,4.875,8.901,10.514,10.099C1064.204,527.286,1069.936,525.744,1075.086,521.771z M1349.398,521.695
		c2.412,4.635,8.705,6.096,12.358,3.359c0.781-0.586,1.041-1.231,0.896-2.104c-0.187-1.122-1.138-1.155-1.912-1.057
		c-3.314,0.424-3.295-1.642-3.274-4.009c0.077-8.819,0.165-17.642,0.022-26.459c-0.101-6.162-1.874-11.665-8.319-14.031
		c-8.135-2.988-16.028-1.613-23.662,2c-1.499,0.71-2.505,1.814-1.567,3.567c0.921,1.728,2.207,0.742,3.438,0.324
		c4.122-1.397,8.3-2.324,12.722-1.827c6.481,0.728,9.23,3.764,9.602,10.407c0.166,2.952-0.393,4.358-3.84,4.688
		c-6.955,0.666-13.869,1.971-19.633,6.435c-4.36,3.376-6.076,7.747-4.701,13.215c1.368,5.437,5.005,8.438,10.285,9.668
		C1338.229,527.366,1343.989,525.817,1349.398,521.695z M657.468,521.211c1.836,5.099,8.367,6.853,12.265,3.769
		c0.748-0.592,1.015-1.236,0.859-2.131c-0.157-0.894-0.934-0.997-1.521-0.924c-4.283,0.537-3.796-2.337-3.827-5.063
		c-0.109-9.483,0.539-18.977-0.309-28.45c-0.492-5.499-3.21-9.541-8.465-11.248c-7.988-2.596-15.769-1.408-23.194,2.325
		c-1.305,0.656-2.738,1.31-1.702,3.383c1.16,2.319,2.416,0.73,3.681,0.319c4.97-1.617,10.021-2.512,15.227-1.393
		c4.743,1.021,7.143,5.124,6.921,11.22c-0.182,4.97-4.216,3.269-6.677,3.794c-5.717,1.22-11.399,2.313-16.271,5.85
		c-4.499,3.267-6.371,7.601-5.285,13.043c1.097,5.496,5.231,9.115,10.918,10.261C646.589,527.273,652.263,525.774,657.468,521.211z
		 M375.539,521.244c2.026,5.049,8.613,6.811,12.307,3.665c0.443-0.378,0.794-1.052,0.871-1.63c0.145-1.099-0.738-1.475-1.593-1.365
		c-4.47,0.571-3.645-2.582-3.705-5.145c-0.223-9.647,0.67-19.313-0.417-28.945c-0.625-5.541-3.686-9.3-8.949-10.858
		c-7.681-2.277-15.162-1.132-22.297,2.311c-1.206,0.582-3.005,1.12-2.124,3.268c0.882,2.151,2.212,1.237,3.659,0.729
		c4.937-1.735,9.997-2.584,15.21-1.487c4.773,1.003,7.16,5.033,7.031,11.149c-0.107,5.036-4.157,3.351-6.613,3.867
		c-5.722,1.204-11.426,2.259-16.285,5.814c-4.447,3.254-6.467,7.545-5.343,13.026c1.142,5.572,5.215,9.244,10.871,10.307
		C364.624,527.161,370.355,525.78,375.539,521.244z M522.145,499.605c-0.381-2.453-0.635-4.933-1.167-7.352
		c-1.722-7.835-5.832-13.814-13.866-16.094c-8.924-2.534-16.887-0.437-23.149,6.448c-7.748,8.516-8.164,18.644-4.914,28.994
		c2.641,8.41,8.251,13.815,17.562,14.626c9.197,0.799,16.178-2.722,21.072-10.427C520.799,510.894,521.959,505.414,522.145,499.605z
		 M128.908,501.311c0.063,22.654,16.439,29.813,36.046,22.334c1.388-0.529,3.492-1.243,2.694-3.481
		c-0.833-2.336-2.647-1.224-4.199-0.797c-1.6,0.441-3.195,0.935-4.823,1.236c-11.244,2.08-19.579-3.353-21.523-13.863
		c-0.665-3.595-0.223-5.538,4.279-5.342c7.964,0.347,15.955,0.115,23.935,0.079c1.567-0.007,3.16,0.393,3.993-1.889
		c4.704-12.869-6.261-26.482-19.669-24.276C137.187,477.359,128.911,487.736,128.908,501.311z M1255.073,501.488
		c4.322,0,8.646-0.015,12.968,0.007c1.805,0.01,3.365-0.235,3.527-2.509c0.56-7.845,0.162-15.472-6.581-20.921
		c-5.263-4.251-14.761-3.968-21.683,0.285c-13.563,8.333-16.77,29.598-6.275,41.601c6.4,7.32,23.92,8.932,31.479,2.939
		c1.025-0.813,1.648-1.6,1.132-2.928c-0.584-1.501-1.76-1.26-2.914-0.967c-1.93,0.491-3.824,1.148-5.773,1.527
		c-11.696,2.272-19.692-3.223-21.84-14.579c-0.711-3.757,0.48-4.706,3.992-4.502
		C1247.083,501.672,1251.083,501.495,1255.073,501.488z M223.837,501.854c-0.094,2.15,0.222,5.474,1.225,8.673
		c2.444,7.796,6.953,13.725,15.434,15.311c9.292,1.737,17.189-0.757,22.746-8.805c5.84-8.459,6.205-17.802,3.488-27.272
		c-3.596-12.535-17.737-18.43-29.38-12.359C228.048,482.249,223.706,490.199,223.837,501.854z M86.183,518.605
		c-0.231,2.126-0.172,4.469,2.967,5.533c7.296,2.474,14.636,3.244,21.989,0.534c6.452-2.379,9.682-7.855,8.818-14.535
		c-0.672-5.203-4.24-8.053-8.562-10.248c-4.592-2.332-9.344-4.407-13.717-7.096c-4.69-2.883-4.69-8.827-0.367-11.591
		c5.537-3.54,12.796-1.646,15.871,4.229c0.921,1.76,2.033,2.888,3.796,1.346c1.837-1.605,0.354-8.731-2.023-9.609
		c-7.304-2.703-14.639-3.21-21.707,0.729c-4.433,2.472-6.677,6.249-6.395,11.504c0.363,6.744,5.256,9.654,10.283,12.361
		c4.089,2.203,8.606,3.635,12.368,6.429c3.896,2.892,4.115,8.03,0.676,11.232c-5.264,4.903-16.582,2.533-19.405-4.11
		c-0.626-1.475-1.165-2.788-3.136-2.385c-1.966,0.401-1.307,1.994-1.444,3.205C86.122,516.79,86.183,517.462,86.183,518.605z
		 M200.357,475.086c-5.118-0.078-8.635,0.902-11.909,2.631c-8.228,4.345-9.332,14.272-2.3,20.3c2.423,2.076,5.242,3.492,8.109,4.856
		c3.593,1.71,7.414,3.045,10.486,5.697c4.029,3.479,3.287,9.674-1.4,12.073c-6.485,3.318-14.89,0.624-18.042-5.831
		c-0.439-0.898-0.611-1.934-1.919-1.895c-0.805,0.025-1.605-0.104-2.157,0.796c-1.848,3.015,0.34,9.737,3.733,10.789
		c6.639,2.057,13.361,2.76,20.113,0.422c5.464-1.893,9.162-5.367,9.792-11.38c0.608-5.809-2.069-9.922-6.967-12.747
		c-1.292-0.745-2.697-1.292-4.024-1.979c-3.835-1.989-7.723-3.889-11.461-6.048c-2.486-1.436-3.745-3.776-3.324-6.743
		c0.449-3.169,2.529-4.976,5.406-5.913c5.96-1.943,10.592-0.104,13.571,5.403c0.604,1.116,1.191,2.01,2.584,1.891
		c1.623-0.14,1.546-1.381,1.69-2.563c0.732-5.991-0.17-7.437-5.947-8.777C203.973,475.507,201.48,475.263,200.357,475.086z
		 M292.064,481.799c-1.371-6.33-1.37-6.327-7.81-4.436c-0.955,0.281-1.97,0.41-2.873,0.803c-1.142,0.496-2.87,0.322-3.107,2.033
		c-0.243,1.744,1.282,2.269,2.481,2.629c3.151,0.949,3.742,3.084,3.685,6.083c-0.162,8.477-0.167,16.96-0.007,25.437
		c0.074,3.884,0.239,7.422-5.146,7.355c-1.04-0.012-1.982,0.444-1.981,1.742c0.001,1.179,0.664,1.941,1.807,1.948
		c7.979,0.048,15.957,0.042,23.937,0.035c1.192-0.001,1.778-0.646,1.798-1.865c0.022-1.335-0.812-1.652-1.9-1.765
		c-2.149-0.225-4.299-0.688-6.443-0.655c-3.184,0.048-4.298-1.153-4.197-4.425c0.23-7.476,0.072-14.963,0.072-22.444
		c0-9.336,0.53-9.964,9.776-10.992c1.463-0.162,3.003-0.178,4.439,0.095c2.196,0.416,4.401,1.419,4.222-2.386
		c-0.124-2.633,0.611-5.282-3.775-5.222C301.197,475.851,296.807,479.085,292.064,481.799z M748.009,488.283
		c0-7.488,0-14.979,0-22.467c0-11.604,0.002-11.591-11.479-9.864c-1.542,0.231-3.083,0.289-3.079,2.405
		c0.003,1.791,1.337,2.328,2.684,2.297c4.147-0.094,4.209,2.482,4.188,5.591c-0.105,16.476-0.148,32.953-0.043,49.429
		c0.021,3.383-0.209,5.91-4.498,5.802c-1.239-0.031-2.799,0.259-2.712,2.181c0.106,2.357,1.933,1.882,3.328,1.886
		c5.325,0.017,10.651-0.008,15.975-0.111c1.338-0.025,3.271,0.63,3.354-1.795c0.081-2.385-2.017-2.084-3.243-2.092
		c-4.171-0.024-4.609-2.372-4.539-5.814C748.131,506.584,748.008,497.433,748.009,488.283z M1295.157,482.271
		c-0.649-6.879-0.649-6.88-6.593-5.185c-1.12,0.319-2.295,0.53-3.336,1.021c-1.235,0.582-3.292,0.249-3.333,2.355
		c-0.033,1.683,1.541,2.125,2.728,2.494c2.989,0.931,3.451,3.015,3.412,5.788c-0.123,8.66-0.179,17.327,0.017,25.984
		c0.086,3.822,0.125,7.063-5.032,6.911c-1.263-0.039-2.226,0.636-2.091,2.181c0.112,1.298,0.992,1.638,2.063,1.64
		c7.829,0.017,15.658,0.018,23.488-0.003c1.078-0.003,1.935-0.388,2.02-1.685c0.105-1.611-0.929-1.915-2.199-2.035
		c-2.155-0.203-4.318-0.698-6.458-0.607c-3.356,0.144-4.168-1.327-4.083-4.462c0.203-7.491,0.065-14.991,0.065-22.486
		c0-9.069,1.193-10.331,10.454-10.892c1.32-0.08,2.692-0.106,3.975,0.157c2.309,0.476,4.331,1.055,4.219-2.582
		c-0.086-2.796,0.288-5.168-3.947-5.099C1304.65,475.864,1300.278,479.1,1295.157,482.271z M597.912,500.264
		c0,4.655-0.078,9.312,0.022,13.964c0.1,4.615,0.656,9.296,5.643,11.267c5.717,2.258,11.09,0.39,16.176-2.434
		c1.239-0.688,1.337-1.813,0.811-3.015c-0.496-1.136-1.396-1.263-2.471-0.907c-0.787,0.26-1.574,0.541-2.383,0.71
		c-7.845,1.637-9.683,0.279-9.888-7.646c-0.167-6.479-0.122-12.965-0.132-19.448c-0.018-10.652-0.004-10.63,10.839-10.881
		c1.789-0.041,4.212,0.864,4.205-2.533c-0.008-3.345-2.378-2.449-4.203-2.587c-0.827-0.062-1.662-0.011-2.493-0.011
		c-8.086-0.002-8.06-0.003-8.375-7.933c-0.059-1.49,0.732-3.607-1.974-3.729c-2.38-0.106-2.464,1.778-2.797,3.381
		c-0.967,4.649-1.952,9.239-7.878,10.035c-1.026,0.138-1.854,0.861-1.674,2.098c0.197,1.358,1.346,1.434,2.292,1.263
		c4.291-0.771,4.439,1.757,4.314,4.943C597.769,491.282,597.9,495.775,597.912,500.264z M1178.854,525.972
		c3.374,0.31,7.423-0.646,11.263-2.309c1.599-0.692,4.363-1.118,3.073-4.039c-1.243-2.816-3.173-0.625-4.606-0.216
		c-6.747,1.93-13.29,2.23-18.688-3.005c-7.364-7.144-8.176-22.974-1.896-31.045c5.661-7.277,15.29-7.034,19.894,0.576
		c1.086,1.795,2.509,2.428,4.073,1.266c2.052-1.521,0.198-9.888-2.287-10.679c-6.443-2.05-12.869-1.69-18.964,1.088
		c-11.875,5.414-17.176,19.003-13.175,33.123C1160.521,521.26,1167.109,526.176,1178.854,525.972z M332.444,498.713
		c0-4.161,0.012-8.322-0.002-12.484c-0.042-12.255,1.525-11.164-10.994-7.799c-1.019,0.273-2.435,0.262-2.514,1.916
		c-0.072,1.523,1.098,2.102,2.148,2.374c3.813,0.99,3.938,3.737,3.886,6.95c-0.138,8.487-0.163,16.98,0.008,25.466
		c0.073,3.625,0.019,6.663-4.81,6.536c-1.157-0.031-2.387,0.233-2.321,1.913c0.078,1.996,1.549,1.854,2.864,1.861
		c5.326,0.023,10.653,0.018,15.979,0.005c1.183-0.002,2.427-0.021,2.688-1.571c0.333-1.977-1.161-2.257-2.479-2.276
		c-4.107-0.067-4.66-2.451-4.518-5.914C332.614,510.039,332.444,504.372,332.444,498.713z M971.81,499.127
		c0-4.498,0.016-8.995-0.004-13.493c-0.049-11.28,1.581-10.692-10.567-7.282c-1.129,0.317-2.92,0.184-2.889,2.13
		c0.023,1.444,1.302,1.965,2.348,2.273c3.49,1.031,3.74,3.558,3.69,6.631c-0.139,8.659-0.213,17.327,0.03,25.982
		c0.104,3.678-0.419,6.165-4.738,6.255c-1.306,0.025-2.87,0.258-2.498,2.242c0.343,1.829,1.906,1.571,3.191,1.579
		c5.163,0.032,10.327,0.035,15.49-0.002c1.269-0.009,2.806,0.283,2.923-1.772c0.115-2.016-1.466-2.12-2.685-2.14
		c-3.761-0.058-4.545-1.985-4.37-5.417C972.019,510.464,971.81,504.79,971.81,499.127z M1216.871,498.744
		c0-4.328,0.003-8.656-0.001-12.983c-0.011-12.189,1.103-10.402-10.374-7.445c-0.991,0.255-2.466,0.158-2.762,1.7
		c-0.342,1.783,1.018,2.424,2.238,2.79c3.435,1.028,3.806,3.448,3.747,6.57c-0.167,8.819-0.223,17.647,0.021,26.463
		c0.099,3.566-0.649,5.678-4.587,5.786c-1.213,0.033-2.928-0.08-2.792,1.965c0.152,2.28,1.975,1.844,3.39,1.855
		c4.827,0.041,9.655,0.064,14.481-0.017c1.346-0.022,3.251,0.655,3.58-1.597c0.337-2.313-1.665-2.335-2.981-2.375
		c-3.659-0.113-4.14-2.131-4.023-5.238C1217.025,510.401,1216.871,504.569,1216.871,498.744z M340.921,453.842
		c-1.708-1.601-3.298-3.294-5.105-4.71c-1.066-0.835-1.779,0.337-2.368,1.088c-3.387,4.318-6.742,8.66-10.117,12.986
		c-0.654,0.839-1.115,1.666-0.275,2.652c0.933,1.098,1.878,0.954,3.059,0.282c4.944-2.813,9.54-6.06,13.369-10.305
		C339.912,455.361,340.241,454.794,340.921,453.842z M972.63,459.447c-0.241-3.245-1.704-5.35-4.894-5.326
		c-3.61,0.027-6.002,2.12-6.318,5.717c-0.283,3.199,1.913,4.916,4.887,5.075C970.082,465.115,971.932,462.74,972.63,459.447z
		 M1206.659,459.123c-0.193,3.651,1.515,5.484,4.55,5.767c3.77,0.35,5.959-1.831,6.409-5.393c0.388-3.072-1.208-5.283-4.409-5.368
		C1209.681,454.035,1207.326,455.911,1206.659,459.123z"/>
	<path fill-rule="evenodd" clip-rule="evenodd" fill="#735D77" d="M13.543,268.428c0-50.643,0.032-101.286-0.018-151.929
		c-0.017-17.407,2.785-34.22,10.978-49.719c18.063-34.169,46.527-52.938,84.999-56.493c3.31-0.306,6.657-0.274,9.988-0.274
		C224.607,10,329.725,10.033,434.841,9.898c4.628-0.006,6.117,0.839,6.109,5.862c-0.167,105.45,0.12,210.901-0.244,316.35
		c-0.152,44.257-20.624,76.554-60.599,95.983c-11.487,5.582-23.823,8.713-36.631,8.754c-58.804,0.188-117.609,0.169-176.415,0.196
		c-49.311,0.022-98.621-0.067-147.93,0.119c-4.701,0.018-5.697-1.356-5.685-5.813C13.596,377.042,13.543,322.734,13.543,268.428z
		 M267.937,18.709c-49.48,0-98.96,0-148.439,0c-7.668,0-15.312,0.286-22.826,2.012c-44.935,10.324-74.478,47.249-74.534,93.798
		c-0.124,103.124-0.016,206.247-0.13,309.371c-0.004,3.976,1.084,4.931,4.977,4.927c102.625-0.106,205.25-0.053,307.875-0.132
		c11.172-0.009,22.292-1.1,32.928-4.923c40.482-14.551,64.259-48.285,64.286-91.554c0.064-102.625-0.013-205.25,0.129-307.874
		c0.006-4.682-1.351-5.734-5.831-5.722C373.561,18.762,320.749,18.708,267.937,18.709z"/>
	<path fill-rule="evenodd" clip-rule="evenodd" fill="#735D77" d="M841.869,482.107c4.451,12.754,8.714,24.965,13.379,38.334
		c3.86-12.906,7.35-24.716,10.947-36.491c0.8-2.617-0.974-2.202-2.376-2.401c-1.715-0.243-3.97,0.242-3.842-2.642
		c0.141-3.161,2.623-1.89,4.146-1.962c3.823-0.18,7.661-0.099,11.492-0.061c1.251,0.012,2.792-0.362,2.969,1.693
		c0.137,1.59-0.422,2.754-2.065,2.765c-3.102,0.02-3.657,2.289-4.428,4.512c-4.963,14.294-9.866,28.609-14.967,42.854
		c-2.241,6.262-5.084,12.259-11.703,17.205c3.143,0,5.048,0,6.952,0c169.937,0,339.872,0,509.81,0.001
		c1.499,0,2.998,0.024,4.497,0.018c2.368-0.011,2.061,1.74,1.999,3.18c-0.063,1.504,0.714,3.608-2.028,3.657
		c-1.665,0.029-3.331,0.025-4.997,0.025c-445.5,0-891,0-1336.499,0c-1.666,0-3.332-0.033-4.998-0.014
		c-2.678,0.031-2.16-1.942-2.204-3.521c-0.046-1.68-0.232-3.484,2.382-3.347c1.495,0.078,2.998,0.002,4.497,0.002
		c267.733-0.001,535.466,0.004,803.2-0.063c2.769-0.001,7.12,1.985,6.924-3.969c-0.051-1.527,1.842-0.838,2.903-0.931
		c6.387-0.561,13.036-6.973,13.728-13.309c0.065-0.604-0.016-1.315-0.284-1.849c-6.498-12.939-10.97-26.72-16.592-40.022
		c-0.926-2.191-1.573-4.36-4.609-4.387c-1.717-0.016-2.051-1.39-1.916-2.886c0.151-1.688,1.413-1.602,2.573-1.606
		c4.998-0.022,9.996-0.018,14.994-0.023c1.212-0.002,2.373,0.021,2.481,1.693c0.097,1.502-0.228,2.657-1.952,2.906
		C844.975,481.659,843.666,481.848,841.869,482.107z"/>
	<path fill-rule="evenodd" clip-rule="evenodd" fill="#735D77" d="M45.527,506.015c-0.5,0-0.999,0-1.498,0
		c-11.814,0-11.699,0.036-15.24,11.401c-0.845,2.712-0.379,3.438,2.304,3.783c1.507,0.194,4.208-0.212,3.795,2.703
		c-0.359,2.541-2.608,1.492-4.05,1.537c-4.323,0.136-8.654,0.069-12.982,0.031c-1.28-0.012-2.789,0.238-2.953-1.77
		c-0.155-1.893,1.28-2.386,2.536-2.384c3.549,0.003,4.194-2.563,5.109-5.111c6.518-18.14,13.11-36.253,19.591-54.406
		c0.919-2.575,1.898-4.081,5.152-4.081c3.305,0,3.781,1.99,4.54,4.167c6.349,18.2,12.745,36.384,18.975,54.624
		c0.946,2.771,1.964,4.726,5.276,4.772c1.35,0.019,3.212,0.26,2.947,2.494c-0.275,2.319-2.158,1.66-3.501,1.681
		c-4.993,0.076-9.988,0.081-14.98-0.003c-1.33-0.021-3.212,0.698-3.557-1.602c-0.343-2.286,1.581-2.456,2.899-2.499
		c4.066-0.133,3.752-1.999,2.698-5.037c-3.561-10.267-3.458-10.302-14.564-10.302C47.191,506.015,46.359,506.015,45.527,506.015z
		 M45.959,466.731c-3.913,11.461-7.339,21.465-10.736,31.479c-0.608,1.79-0.664,3.327,1.952,3.316
		c5.814-0.023,11.629-0.024,17.443,0.009c2.055,0.012,2.685-0.865,2.039-2.792C53.247,488.566,49.851,478.383,45.959,466.731z"/>
	<path fill-rule="evenodd" clip-rule="evenodd" fill="#735D77" d="M682.213,492.012c0-8.812-0.134-17.627,0.07-26.434
		c0.074-3.207-0.629-4.99-4.148-5.163c-1.29-0.063-3.191-0.102-3.169-2.345c0.026-2.672,2.078-2.056,3.604-2.224
		c11.383-1.254,11.384-1.247,11.384,9.964c0,3.657,0.077,7.318-0.024,10.973c-0.076,2.729,0.402,3.868,3.217,1.945
		c3.481-2.376,7.357-3.929,11.665-3.627c7.551,0.528,13.146,3.952,16.426,11.055c5.697,12.332,1.809,28.93-8.853,36.365
		c-9.046,6.31-18.634,4.329-28.209,1.479c-2.402-0.715-1.991-2.778-1.996-4.555c-0.025-9.145-0.012-18.289-0.012-27.434
		C682.184,492.012,682.199,492.012,682.213,492.012z M689.956,502.03c0.013,0,0.026,0,0.04,0c0,4.651,0.15,9.309-0.051,13.95
		c-0.144,3.307,1.39,4.806,4.383,5.563c8.425,2.128,15.771-1.231,19.212-9.24c2.695-6.271,3.144-12.865,1.497-19.496
		c-2.594-10.453-11.948-14.694-21.578-10.033c-2.575,1.247-3.694,2.894-3.559,5.806C690.109,493.055,689.956,497.546,689.956,502.03
		z"/>
	<path fill-rule="evenodd" clip-rule="evenodd" fill="#735D77" d="M926.463,457.871c6.499,0,13,0.105,19.495-0.052
		c2.699-0.064,4.036,0.631,3.883,3.569c-0.104,1.98,0.251,3.982,0.362,5.978c0.07,1.265,0.629,2.843-1.446,3.056
		c-1.48,0.151-2.83-0.354-2.912-2c-0.28-5.615-3.892-5.851-8.26-5.666c-4.985,0.21-9.999,0.039-14.989-0.207
		c-2.932-0.144-4.218,0.668-4.111,3.856c0.205,6.158,0.161,12.33,0.02,18.492c-0.066,2.896,1.12,3.801,3.864,3.637
		c3.49-0.208,7.011-0.361,10.49-0.135c3.354,0.218,5.522-0.641,5.806-4.301c0.129-1.667,1.058-2.251,2.657-2.233
		c1.937,0.021,2.039,1.283,2.038,2.699c-0.002,4.166,0.021,8.331-0.01,12.497c-0.01,1.305,0.163,2.761-1.825,2.928
		c-1.712,0.145-3.197-0.238-3.176-2.174c0.049-4.379-2.714-4.652-5.956-4.401c-4.419,0.341-10.011-2.11-12.953,0.86
		c-2.715,2.74-0.633,8.264-0.888,12.553c-0.069,1.162-0.011,2.331-0.011,3.498c-0.001,9.715-0.003,9.73,9.379,10.73
		c1.705,0.182,3.554,0.11,3.311,2.598c-0.219,2.23-2.039,1.812-3.461,1.818c-7.164,0.034-14.33,0.043-21.494-0.008
		c-1.371-0.01-3.271,0.53-3.338-1.849c-0.063-2.25,1.948-2.224,3.221-2.269c3.82-0.136,4.41-2.145,4.377-5.52
		c-0.161-16.161-0.154-32.325-0.004-48.486c0.03-3.249-0.766-5.039-4.229-5.179c-1.424-0.058-3.187-0.044-3.067-2.32
		c0.144-2.762,2.27-1.906,3.734-1.923c6.497-0.074,12.997-0.032,19.494-0.032C926.463,457.882,926.463,457.876,926.463,457.871z"/>
	<path fill-rule="evenodd" clip-rule="evenodd" fill="#735D77" d="M1000.784,481.814c4.593-2.448,8.926-4.521,13.702-5.477
		c10.123-2.025,16.043,2.279,17.339,12.537c1.131,8.966,0.511,17.965,0.567,26.947c0.02,3.108,0.073,5.627,4.143,5.655
		c1.236,0.008,2.885,0.204,2.696,2.158c-0.215,2.228-2.022,1.824-3.446,1.836c-4.829,0.041-9.66,0.048-14.489-0.004
		c-1.392-0.016-3.245,0.475-3.328-1.88c-0.068-1.932,1.576-2.092,2.789-2.124c3.718-0.102,4.072-2.263,3.94-5.306
		c-0.366-8.476,0.534-16.988-0.685-25.443c-1.039-7.212-4.388-9.723-11.682-8.83c-8.771,1.071-11.032,3.585-11.032,12.257
		c0,7.328,0.122,14.658-0.059,21.982c-0.076,3.056,0.332,5.207,3.968,5.387c1.303,0.063,2.733,0.342,2.529,2.299
		c-0.214,2.048-1.789,1.642-3.02,1.655c-4.829,0.051-9.659,0.019-14.489,0.021c-1.401,0.001-2.749-0.069-2.83-1.959
		c-0.069-1.608,1.145-1.983,2.301-2.041c3.511-0.172,3.681-2.401,3.648-5.159c-0.104-8.825-0.167-17.655,0.025-26.478
		c0.076-3.492-0.305-6.227-4.238-7.253c-1.063-0.277-2.221-0.949-1.957-2.48c0.215-1.253,1.348-1.348,2.249-1.658
		c1.413-0.486,2.858-0.878,4.292-1.303C999.661,475.398,999.661,475.399,1000.784,481.814z"/>
	<path fill-rule="evenodd" clip-rule="evenodd" fill="#705974" d="M1110.566,481.848c4.514-2.134,8.869-4.504,13.787-5.481
		c10.09-2.006,16.179,2.317,17.415,12.491c1.11,9.136,0.569,18.311,0.519,27.463c-0.018,3.242,0.721,5.018,4.151,5.231
		c1.234,0.075,2.871,0.101,2.686,2.131c-0.178,1.939-1.675,1.765-2.993,1.769c-5.165,0.018-10.331,0.019-15.496-0.005
		c-1.141-0.005-2.438,0.126-2.675-1.517c-0.272-1.896,1.095-2.352,2.447-2.386c3.835-0.097,4.421-2.242,4.263-5.566
		c-0.396-8.312,0.467-16.66-0.65-24.959c-1.011-7.501-4.445-10.242-11.898-9.065c-2.585,0.407-5.076,1.512-7.561,2.434
		c-2.453,0.909-3.446,2.65-3.398,5.403c0.153,8.828,0.196,17.664-0.018,26.489c-0.078,3.221,0.693,5.064,4.131,5.273
		c1.404,0.086,2.662,0.565,2.364,2.436c-0.266,1.674-1.591,1.444-2.701,1.452c-4.999,0.031-9.998,0.018-14.996,0.012
		c-1.216-0.002-2.38-0.104-2.576-1.688c-0.198-1.601,0.849-2.062,2.1-2.149c3.624-0.255,3.929-2.528,3.876-5.532
		c-0.154-8.828-0.15-17.662-0.006-26.491c0.054-3.26-0.229-5.934-3.984-6.931c-1.047-0.277-2.319-0.845-2.269-2.31
		c0.055-1.564,1.511-1.582,2.539-1.965c1.087-0.404,2.241-0.625,3.358-0.953C1109.355,475.565,1109.354,475.563,1110.566,481.848z"
		/>
	<path fill-rule="evenodd" clip-rule="evenodd" fill="#735D77" d="M545.169,481.947c4.234-2.087,8.02-4.11,12.23-5.19
		c11.697-3.001,18.522,1.596,19.282,13.776c0.528,8.459,0.348,16.975,0.185,25.458c-0.063,3.296,0.395,5.455,4.268,5.514
		c1.198,0.018,2.794,0.11,2.717,2.124c-0.078,2.034-1.553,1.839-2.853,1.845c-5.16,0.024-10.321,0.021-15.481-0.004
		c-1.136-0.006-2.418,0.121-2.678-1.512c-0.297-1.867,0.959-2.37,2.359-2.428c3.618-0.148,4.049-2.267,3.958-5.336
		c-0.231-7.817,0.063-15.654-0.274-23.465c-0.411-9.545-5.56-12.944-14.77-10.181c-7.974,2.394-8.223,2.724-8.223,10.92
		c0,7.49,0.118,14.984-0.056,22.472c-0.073,3.161,0.139,5.563,4.145,5.574c1.332,0.004,2.757,0.466,2.416,2.381
		c-0.273,1.53-1.505,1.579-2.693,1.583c-4.994,0.013-9.988,0.017-14.982-0.006c-1.143-0.005-2.424,0.114-2.662-1.528
		c-0.271-1.873,1.05-2.387,2.408-2.438c3.593-0.136,3.598-2.432,3.569-5.134c-0.096-9.154-0.151-18.313,0.028-27.465
		c0.06-3.042-0.624-5.098-3.707-6.081c-1.187-0.379-2.639-0.851-2.431-2.663c0.184-1.601,1.657-1.441,2.64-1.841
		c1.379-0.56,2.849-0.907,4.289-1.31C544.497,475.435,544.499,475.439,545.169,481.947z"/>
	<path fill-rule="evenodd" clip-rule="evenodd" fill="#735D77" d="M468.327,466.004c-0.089,0.828-0.035,1.704-0.297,2.473
		c-0.511,1.499,1.111,3.926-1.841,4.391c-3.311,0.521-3.43-2.159-3.732-4.121c-0.49-3.172-2.583-4.362-5.203-5.323
		c-13.212-4.854-26.885,1.938-31.373,15.779c-3.159,9.743-2.456,19.43,1.505,28.778c5.107,12.053,18.205,17.372,30.379,12.626
		c3.149-1.229,5.256-3.304,6.154-6.665c0.44-1.646,0.626-3.994,3.261-3.549c2.523,0.427,1.498,2.626,1.54,4.085
		c0.222,7.619,0.168,7.6-7.131,9.83c-11.274,3.444-22.411,4.12-32.479-3.167c-18.335-13.271-17.842-43.408,0.677-57.033
		c11.415-8.4,23.781-8.36,36.609-4.328C468.851,460.551,468.789,460.748,468.327,466.004z"/>
	<path fill-rule="evenodd" clip-rule="evenodd" fill="#735D77" d="M786.929,501.547c-3.995,0-8.012,0.259-11.979-0.07
		c-4.206-0.349-4.66,1.605-4.128,5.043c1.617,10.439,10.071,16.09,21.366,14.054c1.954-0.354,3.855-1,5.783-1.5
		c1.232-0.319,2.505-1.104,3.354,0.732c0.942,2.04-0.507,2.842-1.826,3.411c-7.198,3.104-14.605,4.396-22.338,2.142
		c-2.926-0.853-5.54-2.188-7.653-4.462c-7.916-8.522-8.466-18.651-5.396-28.969c2.647-8.895,9.072-14.527,18.394-16.391
		c6.266-1.253,12.056-0.359,16.347,4.801c4.72,5.675,5.134,12.409,4.072,19.393c-0.291,1.918-1.706,1.762-3.012,1.771
		c-4.328,0.029-8.656,0.011-12.984,0.011C786.929,501.523,786.929,501.535,786.929,501.547z M782.335,496.206
		c2.982,0,5.972-0.121,8.945,0.036c2.688,0.142,3.826-0.675,3.812-3.604c-0.033-6.907-2.845-11.611-8.017-12.673
		c-6.075-1.247-12.245,2.203-14.797,8.272c-2.868,6.823-2.158,7.938,5.086,7.975C779.021,496.221,780.678,496.213,782.335,496.206z"
		/>
	<path fill-rule="evenodd" clip-rule="evenodd" fill="#735D77" d="M1075.086,521.771c-5.15,3.973-10.882,5.515-17.337,4.145
		c-5.639-1.197-9.183-4.585-10.514-10.099c-1.316-5.457,0.715-9.785,5.136-13.085c4.831-3.605,10.566-4.585,16.245-5.961
		c2.453-0.594,7.044,1.763,6.975-3.825c-0.08-6.532-2.605-10.297-7.671-11.243c-5.066-0.948-9.941-0.104-14.721,1.587
		c-1.301,0.461-2.578,1.902-3.641-0.444c-0.934-2.059,0.451-2.754,1.775-3.409c7.449-3.683,15.232-4.868,23.227-2.242
		c4.816,1.582,7.654,5.173,8.267,10.31c1.188,9.969,0.26,19.973,0.444,29.958c0.044,2.431-0.275,4.874,3.421,4.431
		c0.773-0.092,1.713-0.056,1.914,1.067c0.214,1.193-0.462,1.775-1.424,2.31C1082.592,527.822,1077.899,526.529,1075.086,521.771z
		 M1075.6,509.288c0-1.662-0.147-3.342,0.031-4.985c0.32-2.947-0.994-3.766-3.75-3.588c-4.205,0.271-8.232,1.126-11.97,3.066
		c-4.22,2.19-5.932,5.766-4.908,10.376c0.993,4.465,3.946,6.572,8.59,6.773C1072.749,521.327,1075.548,518.717,1075.6,509.288z"/>
	<path fill-rule="evenodd" clip-rule="evenodd" fill="#735D77" d="M1349.398,521.695c-5.409,4.122-11.169,5.671-17.586,4.177
		c-5.28-1.23-8.917-4.231-10.285-9.668c-1.375-5.468,0.341-9.839,4.701-13.215c5.764-4.464,12.678-5.769,19.633-6.435
		c3.447-0.33,4.006-1.736,3.84-4.688c-0.371-6.644-3.12-9.68-9.602-10.407c-4.422-0.497-8.6,0.43-12.722,1.827
		c-1.231,0.418-2.518,1.403-3.438-0.324c-0.938-1.753,0.068-2.857,1.567-3.567c7.634-3.613,15.527-4.988,23.662-2
		c6.445,2.366,8.219,7.869,8.319,14.031c0.143,8.817,0.055,17.64-0.022,26.459c-0.021,2.367-0.04,4.433,3.274,4.009
		c0.774-0.099,1.726-0.065,1.912,1.057c0.146,0.873-0.114,1.519-0.896,2.104C1358.104,527.791,1351.811,526.33,1349.398,521.695z
		 M1349.663,509.451c0.038-9.965-0.356-10.296-10.303-7.593c-2.216,0.603-4.522,1.348-6.401,2.602
		c-3.493,2.331-4.876,5.743-3.677,9.962c1.126,3.954,3.667,6.086,7.829,6.454C1346.219,521.682,1349.628,518.63,1349.663,509.451z"
		/>
	<path fill-rule="evenodd" clip-rule="evenodd" fill="#735D77" d="M657.468,521.211c-5.206,4.563-10.879,6.063-17.38,4.755
		c-5.687-1.146-9.821-4.765-10.918-10.261c-1.086-5.442,0.786-9.776,5.285-13.043c4.873-3.537,10.554-4.63,16.271-5.85
		c2.46-0.525,6.495,1.176,6.677-3.794c0.222-6.096-2.178-10.199-6.921-11.22c-5.206-1.119-10.257-0.225-15.227,1.393
		c-1.265,0.411-2.521,2-3.681-0.319c-1.037-2.073,0.397-2.727,1.702-3.383c7.425-3.733,15.206-4.921,23.194-2.325
		c5.255,1.707,7.973,5.749,8.465,11.248c0.848,9.474,0.2,18.967,0.309,28.45c0.031,2.726-0.456,5.6,3.827,5.063
		c0.587-0.073,1.364,0.03,1.521,0.924c0.156,0.895-0.111,1.539-0.859,2.131C665.835,528.063,659.305,526.31,657.468,521.211z
		 M657.612,509.464c0-1.995-0.051-3.993,0.015-5.985c0.061-1.836-0.598-2.781-2.574-2.752c-5.249,0.078-10.268,1.041-14.669,4.033
		c-3.676,2.5-4.305,6.239-3.177,10.194c1.06,3.716,3.738,5.639,7.713,5.945C654.152,521.611,657.559,518.607,657.612,509.464z"/>
	<path fill-rule="evenodd" clip-rule="evenodd" fill="#735D77" d="M375.539,521.244c-5.184,4.536-10.915,5.917-17.377,4.705
		c-5.655-1.063-9.729-4.734-10.871-10.307c-1.124-5.481,0.896-9.772,5.343-13.026c4.859-3.556,10.563-4.61,16.285-5.814
		c2.456-0.517,6.506,1.169,6.613-3.867c0.129-6.116-2.258-10.146-7.031-11.149c-5.214-1.097-10.273-0.248-15.21,1.487
		c-1.447,0.509-2.777,1.423-3.659-0.729c-0.881-2.147,0.918-2.686,2.124-3.268c7.135-3.442,14.617-4.588,22.297-2.311
		c5.263,1.559,8.325,5.317,8.949,10.858c1.087,9.633,0.193,19.298,0.417,28.945c0.06,2.563-0.765,5.716,3.705,5.145
		c0.855-0.109,1.738,0.267,1.593,1.365c-0.077,0.578-0.428,1.252-0.871,1.63C384.152,528.055,377.565,526.293,375.539,521.244z
		 M375.697,509.403c0.039-9.856-0.354-10.196-9.974-7.658c-2.227,0.588-4.496,1.34-6.469,2.489
		c-3.936,2.294-5.184,6.012-4.085,10.303c1.077,4.204,4.012,6.17,8.412,6.387C372.757,521.378,375.661,518.713,375.697,509.403z"/>
	<path fill-rule="evenodd" clip-rule="evenodd" fill="#735D77" d="M522.145,499.605c-0.185,5.809-1.345,11.288-4.462,16.196
		c-4.894,7.705-11.875,11.226-21.072,10.427c-9.311-0.811-14.921-6.216-17.562-14.626c-3.25-10.351-2.833-20.479,4.914-28.994
		c6.263-6.885,14.225-8.982,23.149-6.448c8.034,2.279,12.144,8.259,13.866,16.094C521.509,494.673,521.763,497.152,522.145,499.605z
		 M485.721,499.559c-0.055,6.094,0.798,11.982,4.416,17.094c5.422,7.66,17.09,6.767,20.807-1.861c3.914-9.085,3.8-18.5-0.117-27.619
		c-2.151-5.008-6.168-7.546-11.857-7.44c-5.761,0.107-9.244,3.072-11.404,8.096C485.95,491.585,485.679,495.547,485.721,499.559z"/>
	<path fill-rule="evenodd" clip-rule="evenodd" fill="#735D77" d="M128.908,501.311c0.003-13.574,8.279-23.951,20.733-25.999
		c13.408-2.206,24.373,11.407,19.669,24.276c-0.833,2.281-2.426,1.882-3.993,1.889c-7.979,0.036-15.97,0.268-23.935-0.079
		c-4.501-0.196-4.944,1.747-4.279,5.342c1.944,10.511,10.279,15.943,21.523,13.863c1.628-0.302,3.223-0.795,4.823-1.236
		c1.552-0.427,3.365-1.539,4.199,0.797c0.798,2.238-1.307,2.952-2.694,3.481C145.347,531.123,128.971,523.965,128.908,501.311z
		 M149.287,496.532c2.992,0,5.984,0.01,8.977-0.005c1.325-0.006,2.655,0.086,3.25-1.591c1.029-2.901-1.442-11.205-4.309-13.253
		c-4.073-2.913-8.5-2.682-12.675-0.324c-3.606,2.034-5.808,5.293-6.86,9.389c-1.376,5.356-1.174,5.757,4.137,5.787
		C144.3,496.549,146.793,496.537,149.287,496.532z"/>
	<path fill-rule="evenodd" clip-rule="evenodd" fill="#735D77" d="M1255.073,501.492c-3.99,0.003-7.99,0.18-11.968-0.05
		c-3.512-0.204-4.703,0.745-3.992,4.502c2.147,11.356,10.144,16.852,21.84,14.579c1.949-0.379,3.844-1.036,5.773-1.527
		c1.154-0.293,2.33-0.534,2.914,0.967c0.517,1.328-0.106,2.115-1.132,2.928c-7.56,5.992-25.079,4.381-31.479-2.939
		c-10.494-12.003-7.287-33.268,6.275-41.601c6.922-4.253,16.42-4.536,21.683-0.285c6.743,5.449,7.141,13.076,6.581,20.921
		c-0.162,2.273-1.723,2.519-3.527,2.509C1263.719,501.474,1259.396,501.488,1255.073,501.492z M1251.052,496.534
		c3.148,0,6.299,0.031,9.446-0.017c1.262-0.019,2.566,0.229,3.141-1.604c2.246-7.173-3.785-15.361-11.257-15.138
		c-6.094,0.182-9.728,3.699-11.889,8.988c-2.916,7.139-2.451,7.771,5.089,7.772C1247.406,496.537,1249.229,496.537,1251.052,496.534
		z"/>
	<path fill-rule="evenodd" clip-rule="evenodd" fill="#735D77" d="M223.837,501.854c-0.131-11.654,4.211-19.604,13.514-24.453
		c11.643-6.07,25.784-0.176,29.38,12.359c2.717,9.471,2.352,18.813-3.488,27.272c-5.557,8.048-13.455,10.542-22.746,8.805
		c-8.481-1.586-12.99-7.515-15.434-15.311C224.059,507.327,223.743,504.004,223.837,501.854z M259.917,500.888
		c0.248-4.493-0.536-9.193-2.615-13.676c-2.352-5.07-6.233-7.478-11.85-7.478c-5.553,0-9.316,2.721-11.201,7.596
		c-3.729,9.646-3.229,19.229,1.697,28.423c2.374,4.432,6.328,6.328,11.198,5.987c4.829-0.338,8.542-2.691,10.51-7.269
		C259.461,510.279,260.047,505.839,259.917,500.888z"/>
	<path fill-rule="evenodd" clip-rule="evenodd" fill="#735D77" d="M86.183,518.605c0-1.144-0.061-1.815,0.013-2.473
		c0.137-1.211-0.522-2.804,1.444-3.205c1.971-0.403,2.509,0.91,3.136,2.385c2.823,6.644,14.141,9.014,19.405,4.11
		c3.439-3.202,3.22-8.341-0.676-11.232c-3.762-2.794-8.279-4.226-12.368-6.429c-5.027-2.707-9.92-5.617-10.283-12.361
		c-0.282-5.255,1.962-9.032,6.395-11.504c7.068-3.938,14.403-3.432,21.707-0.729c2.377,0.878,3.861,8.004,2.023,9.609
		c-1.764,1.542-2.875,0.414-3.796-1.346c-3.074-5.874-10.333-7.769-15.871-4.229c-4.323,2.764-4.323,8.708,0.367,11.591
		c4.374,2.688,9.125,4.764,13.717,7.096c4.322,2.195,7.89,5.045,8.562,10.248c0.863,6.68-2.366,12.156-8.818,14.535
		c-7.353,2.71-14.692,1.939-21.989-0.534C86.01,523.074,85.952,520.731,86.183,518.605z"/>
	<path fill-rule="evenodd" clip-rule="evenodd" fill="#735D77" d="M200.357,475.086c1.123,0.177,3.616,0.421,6.035,0.981
		c5.777,1.341,6.679,2.786,5.947,8.777c-0.145,1.183-0.067,2.424-1.69,2.563c-1.393,0.119-1.98-0.774-2.584-1.891
		c-2.979-5.508-7.611-7.347-13.571-5.403c-2.877,0.938-4.958,2.744-5.406,5.913c-0.42,2.967,0.838,5.308,3.324,6.743
		c3.738,2.159,7.625,4.059,11.461,6.048c1.327,0.688,2.731,1.234,4.024,1.979c4.898,2.825,7.575,6.938,6.967,12.747
		c-0.63,6.013-4.329,9.487-9.792,11.38c-6.752,2.338-13.474,1.635-20.113-0.422c-3.393-1.052-5.581-7.774-3.733-10.789
		c0.552-0.899,1.352-0.771,2.157-0.796c1.308-0.039,1.48,0.996,1.919,1.895c3.153,6.455,11.557,9.149,18.042,5.831
		c4.687-2.399,5.429-8.595,1.4-12.073c-3.073-2.652-6.893-3.987-10.486-5.697c-2.867-1.364-5.686-2.78-8.109-4.856
		c-7.032-6.027-5.928-15.955,2.3-20.3C191.723,475.988,195.239,475.008,200.357,475.086z"/>
	<path fill-rule="evenodd" clip-rule="evenodd" fill="#735D77" d="M292.064,481.799c4.742-2.714,9.133-5.948,14.978-6.029
		c4.386-0.061,3.651,2.589,3.775,5.222c0.179,3.805-2.026,2.802-4.222,2.386c-1.437-0.272-2.977-0.257-4.439-0.095
		c-9.246,1.028-9.776,1.656-9.776,10.992c0,7.481,0.158,14.969-0.072,22.444c-0.101,3.271,1.013,4.473,4.197,4.425
		c2.144-0.032,4.294,0.431,6.443,0.655c1.088,0.112,1.922,0.43,1.9,1.765c-0.021,1.219-0.606,1.864-1.798,1.865
		c-7.979,0.007-15.958,0.013-23.937-0.035c-1.144-0.007-1.806-0.77-1.807-1.948c-0.001-1.298,0.941-1.754,1.981-1.742
		c5.385,0.066,5.22-3.472,5.146-7.355c-0.16-8.477-0.155-16.96,0.007-25.437c0.057-2.999-0.534-5.134-3.685-6.083
		c-1.199-0.36-2.724-0.885-2.481-2.629c0.238-1.711,1.966-1.537,3.107-2.033c0.903-0.393,1.918-0.521,2.873-0.803
		C290.694,475.472,290.693,475.469,292.064,481.799z"/>
	<path fill-rule="evenodd" clip-rule="evenodd" fill="#705974" d="M748.008,488.283c0,9.149,0.123,18.301-0.063,27.446
		c-0.07,3.442,0.368,5.79,4.539,5.814c1.227,0.008,3.324-0.293,3.243,2.092c-0.083,2.425-2.017,1.77-3.354,1.795
		c-5.324,0.104-10.65,0.128-15.975,0.111c-1.395-0.004-3.222,0.472-3.328-1.886c-0.087-1.922,1.473-2.212,2.712-2.181
		c4.289,0.108,4.52-2.419,4.498-5.802c-0.105-16.476-0.063-32.953,0.043-49.429c0.021-3.108-0.041-5.685-4.188-5.591
		c-1.347,0.031-2.681-0.506-2.684-2.297c-0.004-2.116,1.538-2.174,3.079-2.405c11.481-1.727,11.479-1.74,11.479,9.864
		C748.009,473.305,748.009,480.795,748.008,488.283z"/>
	<path fill-rule="evenodd" clip-rule="evenodd" fill="#735D77" d="M1295.157,482.271c5.121-3.172,9.493-6.407,15.368-6.504
		c4.235-0.069,3.861,2.303,3.947,5.099c0.112,3.637-1.91,3.058-4.219,2.582c-1.282-0.264-2.654-0.237-3.975-0.157
		c-9.261,0.561-10.454,1.822-10.454,10.892c0,7.495,0.138,14.995-0.065,22.486c-0.085,3.135,0.727,4.605,4.083,4.462
		c2.14-0.091,4.303,0.404,6.458,0.607c1.271,0.12,2.305,0.424,2.199,2.035c-0.085,1.297-0.941,1.682-2.02,1.685
		c-7.83,0.021-15.659,0.02-23.488,0.003c-1.071-0.002-1.951-0.342-2.063-1.64c-0.135-1.545,0.828-2.22,2.091-2.181
		c5.157,0.152,5.118-3.089,5.032-6.911c-0.195-8.657-0.14-17.324-0.017-25.984c0.039-2.773-0.423-4.857-3.412-5.788
		c-1.187-0.369-2.761-0.812-2.728-2.494c0.041-2.106,2.098-1.773,3.333-2.355c1.041-0.49,2.216-0.701,3.336-1.021
		C1294.508,475.392,1294.508,475.393,1295.157,482.271z"/>
	<path fill-rule="evenodd" clip-rule="evenodd" fill="#735D77" d="M597.906,500.264c-0.006-4.488-0.137-8.981,0.039-13.463
		c0.125-3.187-0.024-5.714-4.314-4.943c-0.946,0.171-2.094,0.096-2.292-1.263c-0.18-1.236,0.647-1.96,1.674-2.098
		c5.926-0.796,6.911-5.386,7.878-10.035c0.333-1.603,0.417-3.487,2.797-3.381c2.707,0.121,1.915,2.238,1.974,3.729
		c0.315,7.93,0.29,7.931,8.375,7.933c0.831,0,1.666-0.051,2.493,0.011c1.825,0.138,4.195-0.758,4.203,2.587
		c0.008,3.397-2.416,2.492-4.205,2.533c-10.843,0.251-10.857,0.229-10.839,10.881c0.011,6.483-0.035,12.969,0.132,19.448
		c0.206,7.926,2.043,9.283,9.888,7.646c0.809-0.169,1.596-0.45,2.383-0.71c1.075-0.355,1.975-0.229,2.471,0.907
		c0.526,1.202,0.428,2.327-0.811,3.015c-5.086,2.823-10.459,4.691-16.176,2.434c-4.987-1.971-5.543-6.651-5.643-11.267
		C597.834,509.575,597.912,504.919,597.906,500.264z"/>
	<path fill-rule="evenodd" clip-rule="evenodd" fill="#735D77" d="M1178.854,525.972c-11.744,0.204-18.332-4.712-21.313-15.239
		c-4.001-14.12,1.3-27.709,13.175-33.123c6.095-2.778,12.521-3.138,18.964-1.088c2.485,0.791,4.339,9.157,2.287,10.679
		c-1.564,1.162-2.987,0.529-4.073-1.266c-4.604-7.61-14.232-7.854-19.894-0.576c-6.279,8.071-5.468,23.901,1.896,31.045
		c5.397,5.235,11.94,4.935,18.688,3.005c1.434-0.409,3.363-2.601,4.606,0.216c1.29,2.921-1.475,3.347-3.073,4.039
		C1186.276,525.325,1182.228,526.281,1178.854,525.972z"/>
	<path fill-rule="evenodd" clip-rule="evenodd" fill="#705974" d="M332.444,498.713c0,5.659,0.169,11.326-0.063,16.977
		c-0.143,3.463,0.41,5.847,4.518,5.914c1.317,0.02,2.812,0.3,2.479,2.276c-0.262,1.55-1.506,1.569-2.688,1.571
		c-5.327,0.013-10.653,0.019-15.979-0.005c-1.314-0.007-2.786,0.135-2.864-1.861c-0.065-1.68,1.165-1.944,2.321-1.913
		c4.829,0.127,4.883-2.911,4.81-6.536c-0.171-8.485-0.146-16.979-0.008-25.466c0.052-3.213-0.073-5.96-3.886-6.95
		c-1.051-0.272-2.221-0.851-2.148-2.374c0.079-1.654,1.495-1.643,2.514-1.916c12.519-3.365,10.952-4.456,10.994,7.799
		C332.456,490.391,332.444,494.552,332.444,498.713z"/>
	<path fill-rule="evenodd" clip-rule="evenodd" fill="#705974" d="M971.81,499.127c0,5.663,0.209,11.337-0.078,16.986
		c-0.175,3.432,0.609,5.359,4.37,5.417c1.219,0.02,2.8,0.124,2.685,2.14c-0.117,2.056-1.654,1.764-2.923,1.772
		c-5.163,0.037-10.327,0.034-15.49,0.002c-1.285-0.008-2.849,0.25-3.191-1.579c-0.372-1.984,1.192-2.217,2.498-2.242
		c4.319-0.09,4.842-2.577,4.738-6.255c-0.243-8.655-0.169-17.323-0.03-25.982c0.05-3.073-0.2-5.6-3.69-6.631
		c-1.046-0.309-2.324-0.829-2.348-2.273c-0.031-1.946,1.76-1.813,2.889-2.13c12.148-3.41,10.519-3.998,10.567,7.282
		C971.825,490.132,971.81,494.629,971.81,499.127z"/>
	<path fill-rule="evenodd" clip-rule="evenodd" fill="#705974" d="M1216.871,498.744c0,5.825,0.154,11.657-0.063,17.475
		c-0.116,3.107,0.364,5.125,4.023,5.238c1.316,0.04,3.318,0.063,2.981,2.375c-0.329,2.252-2.234,1.574-3.58,1.597
		c-4.826,0.081-9.654,0.058-14.481,0.017c-1.415-0.012-3.237,0.425-3.39-1.855c-0.136-2.045,1.579-1.932,2.792-1.965
		c3.938-0.108,4.686-2.22,4.587-5.786c-0.244-8.815-0.188-17.644-0.021-26.463c0.059-3.122-0.313-5.542-3.747-6.57
		c-1.221-0.366-2.58-1.007-2.238-2.79c0.296-1.542,1.771-1.445,2.762-1.7c11.477-2.957,10.363-4.744,10.374,7.445
		C1216.874,490.088,1216.871,494.416,1216.871,498.744z"/>
	<path fill-rule="evenodd" clip-rule="evenodd" fill="#735D77" d="M340.921,453.842c-0.68,0.952-1.009,1.52-1.438,1.994
		c-3.83,4.245-8.425,7.492-13.369,10.305c-1.181,0.672-2.126,0.815-3.059-0.282c-0.84-0.986-0.378-1.813,0.275-2.652
		c3.375-4.326,6.73-8.668,10.117-12.986c0.589-0.751,1.302-1.923,2.368-1.088C337.623,450.548,339.213,452.241,340.921,453.842z"/>
	<path fill-rule="evenodd" clip-rule="evenodd" fill="#735D77" d="M972.63,459.447c-0.698,3.293-2.548,5.668-6.325,5.466
		c-2.974-0.159-5.17-1.876-4.887-5.075c0.316-3.597,2.708-5.689,6.318-5.717C970.926,454.098,972.389,456.202,972.63,459.447z"/>
	<path fill-rule="evenodd" clip-rule="evenodd" fill="#735D77" d="M1206.659,459.123c0.667-3.212,3.021-5.088,6.55-4.994
		c3.201,0.085,4.797,2.296,4.409,5.368c-0.45,3.562-2.64,5.742-6.409,5.393C1208.174,464.607,1206.466,462.774,1206.659,459.123z"/>
	<path display="none" fill-rule="evenodd" clip-rule="evenodd" fill="#FFFFFF" d="M267.937,18.709
		c52.812,0,105.624,0.053,158.436-0.097c4.48-0.013,5.837,1.04,5.831,5.722c-0.142,102.625-0.065,205.25-0.129,307.874
		c-0.027,43.269-23.804,77.003-64.286,91.554c-10.635,3.823-21.755,4.914-32.928,4.923c-102.625,0.079-205.25,0.025-307.875,0.132
		c-3.893,0.004-4.981-0.951-4.977-4.927c0.114-103.124,0.006-206.247,0.13-309.371c0.056-46.55,29.599-83.475,74.534-93.798
		c7.514-1.727,15.158-2.012,22.826-2.012C168.977,18.709,218.457,18.709,267.937,18.709z M214.151,164.936
		c0.265,0.107,0.53,0.214,0.795,0.322c0,40.308-0.09,80.616,0.086,120.924c0.031,7.055-0.766,12.925-8.603,15.423
		c-1.811,0.577-3.756,2.177-3.046,4.548c0.667,2.229,2.928,1.757,4.71,1.76c11.827,0.019,23.654,0.023,35.48-0.006
		c1.763-0.004,4.038,0.575,4.753-1.683c0.75-2.362-1.088-3.926-2.957-4.534c-7.916-2.577-8.958-8.521-8.924-15.79
		c0.183-39.811,0.16-79.622,0.028-119.433c-0.028-8.389-0.568-16.594,9.76-19.805c1.517-0.472,2.731-2.135,2.178-4.036
		c-0.63-2.164-2.604-1.657-4.202-1.661c-9.328-0.023-18.659,0.115-27.982-0.087c-2.848-0.062-4.071,1.095-5.19,3.47
		c-12.273,26.028-24.646,52.009-36.984,78.007c-8.116,17.102-16.221,34.208-24.53,51.731c-1.009-1.968-1.788-3.431-2.518-4.917
		c-20.288-41.386-40.608-82.755-60.776-124.2c-1.441-2.961-2.915-4.217-6.313-4.105c-8.32,0.274-16.656,0.039-24.983,0.133
		c-1.649,0.019-3.965-1.002-4.691,1.54c-0.774,2.712,1.314,4.254,3.267,4.904c7.489,2.495,8.575,8.096,8.549,15.006
		c-0.15,40.644-0.192,81.29,0.046,121.932c0.046,7.874-0.459,14.634-9.323,17.521c-1.662,0.541-3.287,2.056-2.474,4.286
		c0.717,1.969,2.608,1.734,4.271,1.734c8.495,0.002,16.991,0.053,25.485-0.039c1.807-0.02,4.352,0.923,4.919-1.971
		c0.477-2.429-1.406-3.837-3.257-4.451c-7.025-2.333-8.271-7.507-8.24-14.146c0.174-36.979,0.076-73.959,0.11-110.938
		c0.001-1.571-0.494-3.249,0.787-5.242c0.968,1.808,1.853,3.312,2.602,4.881c20.911,43.846,41.805,87.701,62.724,131.544
		c0.865,1.814,1.048,4.178,4.189,4.02c2.989-0.151,3.309-2.394,4.171-4.252c13.443-28.957,26.848-57.934,40.281-86.896
		C196.933,201.923,205.549,183.433,214.151,164.936z M321.648,140.953c-14.602,0-26.598-0.042-38.592,0.046
		c-1.787,0.014-4.364-1.103-5.031,1.757c-0.552,2.365,1.229,3.917,3.122,4.54c8.019,2.64,8.741,8.91,8.699,15.987
		c-0.239,40.313-0.417,80.626-0.421,120.939c-0.001,7.638,0.197,14.93-9.024,17.661c-0.295,0.088-0.526,0.398-0.779,0.615
		c-1.048,0.899-1.976,1.938-1.6,3.415c0.461,1.813,2,2.002,3.567,2.002c12.662-0.001,25.323-0.003,37.984-0.005
		c1.414,0,2.712-0.311,3.211-1.818c0.494-1.495-0.346-2.612-1.438-3.44c-1.052-0.798-2.187-1.58-3.407-2.047
		c-5.084-1.942-6.916-5.775-6.902-10.961c0.05-18.992,0.088-37.984-0.048-56.975c-0.023-3.305,1.025-4.257,4.276-4.212
		c11.993,0.169,23.989,0.117,35.984,0.046c6.672-0.04,13.228-0.843,19.734-2.569c36.353-9.644,37.573-49.376,23.115-67.951
		c-8.24-10.585-19.742-14.209-32.144-16.058C347.708,139.804,333.341,141.523,321.648,140.953z"/>
	<path display="none" fill-rule="evenodd" clip-rule="evenodd" fill="#FFFFFF" d="M45.959,466.731
		c3.892,11.651,7.288,21.835,10.697,32.013c0.646,1.927,0.016,2.804-2.039,2.792c-5.814-0.033-11.629-0.032-17.443-0.009
		c-2.616,0.011-2.56-1.526-1.952-3.316C38.62,488.196,42.046,478.192,45.959,466.731z"/>
	<path display="none" fill-rule="evenodd" clip-rule="evenodd" fill="#FFFFFF" d="M689.956,502.03c0-4.484,0.153-8.976-0.055-13.451
		c-0.136-2.912,0.984-4.559,3.559-5.806c9.63-4.661,18.984-0.42,21.578,10.033c1.646,6.631,1.198,13.226-1.497,19.496
		c-3.442,8.009-10.788,11.368-19.212,9.24c-2.993-0.757-4.526-2.256-4.383-5.563c0.201-4.642,0.051-9.299,0.051-13.95
		C689.982,502.03,689.969,502.03,689.956,502.03z"/>
	<path display="none" fill-rule="evenodd" clip-rule="evenodd" fill="#FFFFFF" d="M782.335,496.21
		c-1.657,0.003-3.313,0.011-4.971,0.002c-7.244-0.037-7.954-1.151-5.086-7.975c2.552-6.069,8.722-9.52,14.797-8.272
		c5.172,1.062,7.983,5.766,8.017,12.673c0.015,2.93-1.124,3.746-3.812,3.604C788.307,496.085,785.317,496.206,782.335,496.21z"/>
	<path display="none" fill-rule="evenodd" clip-rule="evenodd" fill="#FFFFFF" d="M1075.6,509.288
		c-0.052,9.429-2.851,12.039-12.007,11.643c-4.644-0.201-7.597-2.309-8.59-6.773c-1.023-4.61,0.688-8.186,4.908-10.376
		c3.737-1.94,7.765-2.795,11.97-3.066c2.756-0.178,4.07,0.641,3.75,3.588C1075.452,505.946,1075.6,507.626,1075.6,509.288z"/>
	<path display="none" fill-rule="evenodd" clip-rule="evenodd" fill="#FFFFFF" d="M1349.663,509.451
		c-0.035,9.179-3.444,12.23-12.552,11.425c-4.162-0.368-6.703-2.5-7.829-6.454c-1.199-4.219,0.184-7.631,3.677-9.962
		c1.879-1.254,4.186-1.999,6.401-2.602C1349.307,499.155,1349.701,499.486,1349.663,509.451z"/>
	<path display="none" fill-rule="evenodd" clip-rule="evenodd" fill="#FFFFFF" d="M657.605,509.464
		c-0.046,9.144-3.453,12.147-12.685,11.436c-3.975-0.307-6.653-2.229-7.713-5.945c-1.128-3.955-0.499-7.694,3.177-10.194
		c4.401-2.992,9.42-3.955,14.669-4.033c1.976-0.029,2.635,0.916,2.574,2.752C657.561,505.471,657.612,507.469,657.605,509.464z"/>
	<path display="none" fill-rule="evenodd" clip-rule="evenodd" fill="#FFFFFF" d="M375.697,509.403
		c-0.036,9.31-2.939,11.975-12.116,11.521c-4.4-0.217-7.334-2.183-8.412-6.387c-1.099-4.291,0.149-8.009,4.085-10.303
		c1.973-1.149,4.242-1.901,6.469-2.489C375.342,499.207,375.735,499.547,375.697,509.403z"/>
	<path display="none" fill-rule="evenodd" clip-rule="evenodd" fill="#FFFFFF" d="M485.727,499.561
		c-0.047-4.014,0.223-7.976,1.839-11.733c2.16-5.023,5.643-7.988,11.404-8.096c5.689-0.105,9.707,2.433,11.857,7.44
		c3.917,9.119,4.03,18.534,0.117,27.619c-3.717,8.628-15.385,9.521-20.807,1.861C486.519,511.541,485.666,505.652,485.727,499.561z"
		/>
	<path display="none" fill-rule="evenodd" clip-rule="evenodd" fill="#FFFFFF" d="M149.287,496.535c-2.494,0.002-4.987,0.014-7.48,0
		c-5.311-0.03-5.514-0.431-4.137-5.787c1.053-4.096,3.254-7.354,6.86-9.389c4.175-2.357,8.602-2.589,12.675,0.324
		c2.866,2.048,5.337,10.352,4.309,13.253c-0.595,1.677-1.924,1.585-3.25,1.591C155.271,496.542,152.279,496.532,149.287,496.535z"/>
	<path display="none" fill-rule="evenodd" clip-rule="evenodd" fill="#FFFFFF" d="M1251.052,496.535
		c-1.823,0.002-3.646,0.002-5.47,0.002c-7.54-0.001-8.005-0.634-5.089-7.772c2.161-5.289,5.795-8.807,11.889-8.988
		c7.472-0.224,13.503,7.965,11.257,15.138c-0.574,1.833-1.879,1.585-3.141,1.604C1257.351,496.565,1254.2,496.534,1251.052,496.535z
		"/>
	<path display="none" fill-rule="evenodd" clip-rule="evenodd" fill="#FFFFFF" d="M259.917,500.888
		c0.129,4.951-0.457,9.392-2.26,13.584c-1.968,4.577-5.681,6.931-10.51,7.269c-4.87,0.341-8.824-1.556-11.198-5.987
		c-4.926-9.194-5.427-18.776-1.697-28.423c1.884-4.875,5.648-7.596,11.201-7.596c5.617,0,9.498,2.407,11.85,7.478
		C259.382,491.694,260.165,496.395,259.917,500.888z"/>
	<path fill-rule="evenodd" clip-rule="evenodd" fill="#705974" d="M214.151,164.936c-8.602,18.497-17.219,36.987-25.803,55.492
		c-13.433,28.962-26.837,57.939-40.281,86.896c-0.863,1.858-1.182,4.101-4.171,4.252c-3.141,0.158-3.324-2.205-4.189-4.02
		c-20.918-43.843-41.813-87.698-62.724-131.544c-0.749-1.569-1.633-3.073-2.602-4.881c-1.281,1.994-0.786,3.671-0.787,5.242
		c-0.034,36.979,0.064,73.96-0.11,110.938c-0.031,6.64,1.215,11.813,8.24,14.146c1.851,0.614,3.734,2.022,3.257,4.451
		c-0.568,2.894-3.112,1.951-4.919,1.971c-8.495,0.092-16.99,0.041-25.485,0.039c-1.663,0-3.554,0.234-4.271-1.734
		c-0.813-2.23,0.812-3.745,2.474-4.286c8.864-2.887,9.369-9.646,9.323-17.521c-0.239-40.643-0.196-81.288-0.046-121.932
		c0.025-6.91-1.06-12.511-8.549-15.006c-1.953-0.65-4.041-2.192-3.267-4.904c0.726-2.542,3.042-1.521,4.691-1.54
		c8.327-0.094,16.663,0.141,24.983-0.133c3.398-0.112,4.872,1.144,6.313,4.105c20.168,41.444,40.488,82.814,60.776,124.2
		c0.729,1.486,1.508,2.949,2.518,4.917c8.309-17.523,16.414-34.63,24.53-51.731c12.338-25.998,24.711-51.979,36.984-78.007
		c1.12-2.375,2.342-3.532,5.19-3.47c9.324,0.203,18.654,0.064,27.982,0.087c1.599,0.004,3.572-0.503,4.202,1.661
		c0.554,1.901-0.661,3.564-2.178,4.036c-10.328,3.211-9.788,11.416-9.76,19.805c0.132,39.811,0.155,79.623-0.028,119.433
		c-0.033,7.27,1.008,13.213,8.924,15.79c1.869,0.608,3.707,2.172,2.957,4.534c-0.715,2.258-2.99,1.679-4.753,1.683
		c-11.827,0.029-23.654,0.024-35.48,0.006c-1.783-0.003-4.044,0.469-4.71-1.76c-0.709-2.371,1.235-3.971,3.046-4.548
		c7.837-2.498,8.634-8.368,8.603-15.423c-0.176-40.308-0.086-80.616-0.086-120.924C214.682,165.15,214.417,165.043,214.151,164.936z
		"/>
	<path fill-rule="evenodd" clip-rule="evenodd" fill="#705974" d="M321.648,140.953c11.693,0.571,26.06-1.149,40.305,0.974
		c12.402,1.849,23.904,5.473,32.144,16.058c14.458,18.574,13.238,58.307-23.115,67.951c-6.506,1.726-13.062,2.529-19.734,2.569
		c-11.995,0.07-23.991,0.123-35.984-0.046c-3.251-0.045-4.299,0.907-4.276,4.212c0.136,18.991,0.098,37.983,0.048,56.975
		c-0.014,5.186,1.818,9.019,6.902,10.961c1.221,0.467,2.355,1.249,3.407,2.047c1.093,0.828,1.932,1.945,1.438,3.44
		c-0.499,1.508-1.797,1.818-3.211,1.818c-12.661,0.002-25.322,0.004-37.984,0.005c-1.566,0-3.105-0.189-3.567-2.002
		c-0.376-1.477,0.551-2.516,1.6-3.415c0.252-0.217,0.484-0.527,0.779-0.615c9.221-2.731,9.023-10.023,9.024-17.661
		c0.004-40.313,0.182-80.626,0.421-120.939c0.042-7.078-0.681-13.347-8.699-15.987c-1.892-0.623-3.673-2.175-3.122-4.54
		c0.667-2.859,3.244-1.743,5.031-1.757C295.051,140.91,307.046,140.953,321.648,140.953z M311.054,185.511
		c0,10.164-0.015,20.328,0.013,30.492c0.005,1.896-0.617,4.225,2.69,4.108c12.625-0.446,25.324,1.081,37.878-1.274
		c16.83-3.158,27.795-16.19,28.112-33.282c0.302-16.327-10.775-30.142-27.242-33.469c-12.854-2.597-25.917-0.833-38.879-1.295
		c-2.899-0.104-2.568,1.91-2.569,3.73C311.052,164.85,311.055,175.181,311.054,185.511z"/>
	<path display="none" fill-rule="evenodd" clip-rule="evenodd" fill="#FFFFFF" d="M311.054,185.511
		c0-10.331-0.002-20.661,0.003-30.992c0.001-1.82-0.331-3.833,2.569-3.73c12.961,0.462,26.025-1.302,38.879,1.295
		c16.467,3.327,27.544,17.142,27.242,33.469c-0.316,17.092-11.282,30.124-28.112,33.282c-12.554,2.355-25.252,0.829-37.878,1.274
		c-3.308,0.117-2.685-2.212-2.69-4.108C311.04,205.839,311.054,195.675,311.054,185.511z"/>
</g>
</svg>
